o voidsphere
v 0.0000 1.0000 0.0000
v 0.0000 1.0000 0.0000
v 0.0000 1.0000 0.0000
v 0.0000 1.0000 0.0000
v 0.0000 1.0000 0.0000
v 0.0000 1.0000 0.0000
v 0.0000 1.0000 0.0000
v 0.0000 1.0000 0.0000
v 0.0000 1.0000 0.0000
v 0.0000 1.0000 0.0000
v 0.0000 1.0000 0.0000
v 0.0000 1.0000 0.0000
v 0.0000 1.0000 0.0000
v 0.0000 1.0000 0.0000
v 0.0000 1.0000 0.0000
v 0.0000 1.0000 0.0000
v 0.0000 1.0000 0.0000
v 0.0000 1.0000 0.0000
v 0.0000 1.0000 0.0000
v 0.0000 1.0000 0.0000
v 0.0000 1.0000 0.0000
v 0.0000 1.0000 0.0000
v 0.0000 1.0000 0.0000
v 0.0000 1.0000 0.0000
v 0.1951 0.9808 0.0000
v 0.1884 0.9808 0.0505
v 0.1690 0.9808 0.0975
v 0.1379 0.9808 0.1379
v 0.0975 0.9808 0.1690
v 0.0505 0.9808 0.1884
v 0.0000 0.9808 0.1951
v -0.0505 0.9808 0.1884
v -0.0975 0.9808 0.1690
v -0.1379 0.9808 0.1379
v -0.1690 0.9808 0.0975
v -0.1884 0.9808 0.0505
v -0.1951 0.9808 0.0000
v -0.1884 0.9808 -0.0505
v -0.1690 0.9808 -0.0975
v -0.1379 0.9808 -0.1379
v -0.0975 0.9808 -0.1690
v -0.0505 0.9808 -0.1884
v -0.0000 0.9808 -0.1951
v 0.0505 0.9808 -0.1884
v 0.0975 0.9808 -0.1690
v 0.1379 0.9808 -0.1379
v 0.1690 0.9808 -0.0975
v 0.1884 0.9808 -0.0505
v 0.3827 0.9239 0.0000
v 0.3696 0.9239 0.0990
v 0.3314 0.9239 0.1913
v 0.2706 0.9239 0.2706
v 0.1913 0.9239 0.3314
v 0.0990 0.9239 0.3696
v 0.0000 0.9239 0.3827
v -0.0990 0.9239 0.3696
v -0.1913 0.9239 0.3314
v -0.2706 0.9239 0.2706
v -0.3314 0.9239 0.1913
v -0.3696 0.9239 0.0990
v -0.3827 0.9239 0.0000
v -0.3696 0.9239 -0.0990
v -0.3314 0.9239 -0.1913
v -0.2706 0.9239 -0.2706
v -0.1913 0.9239 -0.3314
v -0.0990 0.9239 -0.3696
v -0.0000 0.9239 -0.3827
v 0.0990 0.9239 -0.3696
v 0.1913 0.9239 -0.3314
v 0.2706 0.9239 -0.2706
v 0.3314 0.9239 -0.1913
v 0.3696 0.9239 -0.0990
v 0.5556 0.8315 0.0000
v 0.5366 0.8315 0.1438
v 0.4811 0.8315 0.2778
v 0.3928 0.8315 0.3928
v 0.2778 0.8315 0.4811
v 0.1438 0.8315 0.5366
v 0.0000 0.8315 0.5556
v -0.1438 0.8315 0.5366
v -0.2778 0.8315 0.4811
v -0.3928 0.8315 0.3928
v -0.4811 0.8315 0.2778
v -0.5366 0.8315 0.1438
v -0.5556 0.8315 0.0000
v -0.5366 0.8315 -0.1438
v -0.4811 0.8315 -0.2778
v -0.3928 0.8315 -0.3928
v -0.2778 0.8315 -0.4811
v -0.1438 0.8315 -0.5366
v -0.0000 0.8315 -0.5556
v 0.1438 0.8315 -0.5366
v 0.2778 0.8315 -0.4811
v 0.3928 0.8315 -0.3928
v 0.4811 0.8315 -0.2778
v 0.5366 0.8315 -0.1438
v 0.7071 0.7071 0.0000
v 0.6830 0.7071 0.1830
v 0.6124 0.7071 0.3536
v 0.5000 0.7071 0.5000
v 0.3536 0.7071 0.6124
v 0.1830 0.7071 0.6830
v 0.0000 0.7071 0.7071
v -0.1830 0.7071 0.6830
v -0.3536 0.7071 0.6124
v -0.5000 0.7071 0.5000
v -0.6124 0.7071 0.3536
v -0.6830 0.7071 0.1830
v -0.7071 0.7071 0.0000
v -0.6830 0.7071 -0.1830
v -0.6124 0.7071 -0.3536
v -0.5000 0.7071 -0.5000
v -0.3536 0.7071 -0.6124
v -0.1830 0.7071 -0.6830
v -0.0000 0.7071 -0.7071
v 0.1830 0.7071 -0.6830
v 0.3536 0.7071 -0.6124
v 0.5000 0.7071 -0.5000
v 0.6124 0.7071 -0.3536
v 0.6830 0.7071 -0.1830
v 0.8315 0.5556 0.0000
v 0.8031 0.5556 0.2152
v 0.7201 0.5556 0.4157
v 0.5879 0.5556 0.5879
v 0.4157 0.5556 0.7201
v 0.2152 0.5556 0.8031
v 0.0000 0.5556 0.8315
v -0.2152 0.5556 0.8031
v -0.4157 0.5556 0.7201
v -0.5879 0.5556 0.5879
v -0.7201 0.5556 0.4157
v -0.8031 0.5556 0.2152
v -0.8315 0.5556 0.0000
v -0.8031 0.5556 -0.2152
v -0.7201 0.5556 -0.4157
v -0.5879 0.5556 -0.5879
v -0.4157 0.5556 -0.7201
v -0.2152 0.5556 -0.8031
v -0.0000 0.5556 -0.8315
v 0.2152 0.5556 -0.8031
v 0.4157 0.5556 -0.7201
v 0.5879 0.5556 -0.5879
v 0.7201 0.5556 -0.4157
v 0.8031 0.5556 -0.2152
v 0.9239 0.3827 0.0000
v 0.8924 0.3827 0.2391
v 0.8001 0.3827 0.4619
v 0.6533 0.3827 0.6533
v 0.4619 0.3827 0.8001
v 0.2391 0.3827 0.8924
v 0.0000 0.3827 0.9239
v -0.2391 0.3827 0.8924
v -0.4619 0.3827 0.8001
v -0.6533 0.3827 0.6533
v -0.8001 0.3827 0.4619
v -0.8924 0.3827 0.2391
v -0.9239 0.3827 0.0000
v -0.8924 0.3827 -0.2391
v -0.8001 0.3827 -0.4619
v -0.6533 0.3827 -0.6533
v -0.4619 0.3827 -0.8001
v -0.2391 0.3827 -0.8924
v -0.0000 0.3827 -0.9239
v 0.2391 0.3827 -0.8924
v 0.4619 0.3827 -0.8001
v 0.6533 0.3827 -0.6533
v 0.8001 0.3827 -0.4619
v 0.8924 0.3827 -0.2391
v 0.9808 0.1951 0.0000
v 0.9474 0.1951 0.2538
v 0.8494 0.1951 0.4904
v 0.6935 0.1951 0.6935
v 0.4904 0.1951 0.8494
v 0.2538 0.1951 0.9474
v 0.0000 0.1951 0.9808
v -0.2538 0.1951 0.9474
v -0.4904 0.1951 0.8494
v -0.6935 0.1951 0.6935
v -0.8494 0.1951 0.4904
v -0.9474 0.1951 0.2538
v -0.9808 0.1951 0.0000
v -0.9474 0.1951 -0.2538
v -0.8494 0.1951 -0.4904
v -0.6935 0.1951 -0.6935
v -0.4904 0.1951 -0.8494
v -0.2538 0.1951 -0.9474
v -0.0000 0.1951 -0.9808
v 0.2538 0.1951 -0.9474
v 0.4904 0.1951 -0.8494
v 0.6935 0.1951 -0.6935
v 0.8494 0.1951 -0.4904
v 0.9474 0.1951 -0.2538
v 1.0000 0.0000 0.0000
v 0.9659 0.0000 0.2588
v 0.8660 0.0000 0.5000
v 0.7071 0.0000 0.7071
v 0.5000 0.0000 0.8660
v 0.2588 0.0000 0.9659
v 0.0000 0.0000 1.0000
v -0.2588 0.0000 0.9659
v -0.5000 0.0000 0.8660
v -0.7071 0.0000 0.7071
v -0.8660 0.0000 0.5000
v -0.9659 0.0000 0.2588
v -1.0000 0.0000 0.0000
v -0.9659 0.0000 -0.2588
v -0.8660 0.0000 -0.5000
v -0.7071 0.0000 -0.7071
v -0.5000 0.0000 -0.8660
v -0.2588 0.0000 -0.9659
v -0.0000 0.0000 -1.0000
v 0.2588 0.0000 -0.9659
v 0.5000 0.0000 -0.8660
v 0.7071 0.0000 -0.7071
v 0.8660 0.0000 -0.5000
v 0.9659 0.0000 -0.2588
v 0.9808 -0.1951 0.0000
v 0.9474 -0.1951 0.2538
v 0.8494 -0.1951 0.4904
v 0.6935 -0.1951 0.6935
v 0.4904 -0.1951 0.8494
v 0.2538 -0.1951 0.9474
v 0.0000 -0.1951 0.9808
v -0.2538 -0.1951 0.9474
v -0.4904 -0.1951 0.8494
v -0.6935 -0.1951 0.6935
v -0.8494 -0.1951 0.4904
v -0.9474 -0.1951 0.2538
v -0.9808 -0.1951 0.0000
v -0.9474 -0.1951 -0.2538
v -0.8494 -0.1951 -0.4904
v -0.6935 -0.1951 -0.6935
v -0.4904 -0.1951 -0.8494
v -0.2538 -0.1951 -0.9474
v -0.0000 -0.1951 -0.9808
v 0.2538 -0.1951 -0.9474
v 0.4904 -0.1951 -0.8494
v 0.6935 -0.1951 -0.6935
v 0.8494 -0.1951 -0.4904
v 0.9474 -0.1951 -0.2538
v 0.9239 -0.3827 0.0000
v 0.8924 -0.3827 0.2391
v 0.8001 -0.3827 0.4619
v 0.6533 -0.3827 0.6533
v 0.4619 -0.3827 0.8001
v 0.2391 -0.3827 0.8924
v 0.0000 -0.3827 0.9239
v -0.2391 -0.3827 0.8924
v -0.4619 -0.3827 0.8001
v -0.6533 -0.3827 0.6533
v -0.8001 -0.3827 0.4619
v -0.8924 -0.3827 0.2391
v -0.9239 -0.3827 0.0000
v -0.8924 -0.3827 -0.2391
v -0.8001 -0.3827 -0.4619
v -0.6533 -0.3827 -0.6533
v -0.4619 -0.3827 -0.8001
v -0.2391 -0.3827 -0.8924
v -0.0000 -0.3827 -0.9239
v 0.2391 -0.3827 -0.8924
v 0.4619 -0.3827 -0.8001
v 0.6533 -0.3827 -0.6533
v 0.8001 -0.3827 -0.4619
v 0.8924 -0.3827 -0.2391
v 0.8315 -0.5556 0.0000
v 0.8031 -0.5556 0.2152
v 0.7201 -0.5556 0.4157
v 0.5879 -0.5556 0.5879
v 0.4157 -0.5556 0.7201
v 0.2152 -0.5556 0.8031
v 0.0000 -0.5556 0.8315
v -0.2152 -0.5556 0.8031
v -0.4157 -0.5556 0.7201
v -0.5879 -0.5556 0.5879
v -0.7201 -0.5556 0.4157
v -0.8031 -0.5556 0.2152
v -0.8315 -0.5556 0.0000
v -0.8031 -0.5556 -0.2152
v -0.7201 -0.5556 -0.4157
v -0.5879 -0.5556 -0.5879
v -0.4157 -0.5556 -0.7201
v -0.2152 -0.5556 -0.8031
v -0.0000 -0.5556 -0.8315
v 0.2152 -0.5556 -0.8031
v 0.4157 -0.5556 -0.7201
v 0.5879 -0.5556 -0.5879
v 0.7201 -0.5556 -0.4157
v 0.8031 -0.5556 -0.2152
v 0.7071 -0.7071 0.0000
v 0.6830 -0.7071 0.1830
v 0.6124 -0.7071 0.3536
v 0.5000 -0.7071 0.5000
v 0.3536 -0.7071 0.6124
v 0.1830 -0.7071 0.6830
v 0.0000 -0.7071 0.7071
v -0.1830 -0.7071 0.6830
v -0.3536 -0.7071 0.6124
v -0.5000 -0.7071 0.5000
v -0.6124 -0.7071 0.3536
v -0.6830 -0.7071 0.1830
v -0.7071 -0.7071 0.0000
v -0.6830 -0.7071 -0.1830
v -0.6124 -0.7071 -0.3536
v -0.5000 -0.7071 -0.5000
v -0.3536 -0.7071 -0.6124
v -0.1830 -0.7071 -0.6830
v -0.0000 -0.7071 -0.7071
v 0.1830 -0.7071 -0.6830
v 0.3536 -0.7071 -0.6124
v 0.5000 -0.7071 -0.5000
v 0.6124 -0.7071 -0.3536
v 0.6830 -0.7071 -0.1830
v 0.5556 -0.8315 0.0000
v 0.5366 -0.8315 0.1438
v 0.4811 -0.8315 0.2778
v 0.3928 -0.8315 0.3928
v 0.2778 -0.8315 0.4811
v 0.1438 -0.8315 0.5366
v 0.0000 -0.8315 0.5556
v -0.1438 -0.8315 0.5366
v -0.2778 -0.8315 0.4811
v -0.3928 -0.8315 0.3928
v -0.4811 -0.8315 0.2778
v -0.5366 -0.8315 0.1438
v -0.5556 -0.8315 0.0000
v -0.5366 -0.8315 -0.1438
v -0.4811 -0.8315 -0.2778
v -0.3928 -0.8315 -0.3928
v -0.2778 -0.8315 -0.4811
v -0.1438 -0.8315 -0.5366
v -0.0000 -0.8315 -0.5556
v 0.1438 -0.8315 -0.5366
v 0.2778 -0.8315 -0.4811
v 0.3928 -0.8315 -0.3928
v 0.4811 -0.8315 -0.2778
v 0.5366 -0.8315 -0.1438
v 0.3827 -0.9239 0.0000
v 0.3696 -0.9239 0.0990
v 0.3314 -0.9239 0.1913
v 0.2706 -0.9239 0.2706
v 0.1913 -0.9239 0.3314
v 0.0990 -0.9239 0.3696
v 0.0000 -0.9239 0.3827
v -0.0990 -0.9239 0.3696
v -0.1913 -0.9239 0.3314
v -0.2706 -0.9239 0.2706
v -0.3314 -0.9239 0.1913
v -0.3696 -0.9239 0.0990
v -0.3827 -0.9239 0.0000
v -0.3696 -0.9239 -0.0990
v -0.3314 -0.9239 -0.1913
v -0.2706 -0.9239 -0.2706
v -0.1913 -0.9239 -0.3314
v -0.0990 -0.9239 -0.3696
v -0.0000 -0.9239 -0.3827
v 0.0990 -0.9239 -0.3696
v 0.1913 -0.9239 -0.3314
v 0.2706 -0.9239 -0.2706
v 0.3314 -0.9239 -0.1913
v 0.3696 -0.9239 -0.0990
v 0.1951 -0.9808 0.0000
v 0.1884 -0.9808 0.0505
v 0.1690 -0.9808 0.0975
v 0.1379 -0.9808 0.1379
v 0.0975 -0.9808 0.1690
v 0.0505 -0.9808 0.1884
v 0.0000 -0.9808 0.1951
v -0.0505 -0.9808 0.1884
v -0.0975 -0.9808 0.1690
v -0.1379 -0.9808 0.1379
v -0.1690 -0.9808 0.0975
v -0.1884 -0.9808 0.0505
v -0.1951 -0.9808 0.0000
v -0.1884 -0.9808 -0.0505
v -0.1690 -0.9808 -0.0975
v -0.1379 -0.9808 -0.1379
v -0.0975 -0.9808 -0.1690
v -0.0505 -0.9808 -0.1884
v -0.0000 -0.9808 -0.1951
v 0.0505 -0.9808 -0.1884
v 0.0975 -0.9808 -0.1690
v 0.1379 -0.9808 -0.1379
v 0.1690 -0.9808 -0.0975
v 0.1884 -0.9808 -0.0505
v 0.0000 -1.0000 0.0000
v 0.0000 -1.0000 0.0000
v 0.0000 -1.0000 0.0000
v 0.0000 -1.0000 0.0000
v 0.0000 -1.0000 0.0000
v 0.0000 -1.0000 0.0000
v 0.0000 -1.0000 0.0000
v -0.0000 -1.0000 0.0000
v -0.0000 -1.0000 0.0000
v -0.0000 -1.0000 0.0000
v -0.0000 -1.0000 0.0000
v -0.0000 -1.0000 0.0000
v -0.0000 -1.0000 0.0000
v -0.0000 -1.0000 -0.0000
v -0.0000 -1.0000 -0.0000
v -0.0000 -1.0000 -0.0000
v -0.0000 -1.0000 -0.0000
v -0.0000 -1.0000 -0.0000
v -0.0000 -1.0000 -0.0000
v 0.0000 -1.0000 -0.0000
v 0.0000 -1.0000 -0.0000
v 0.0000 -1.0000 -0.0000
v 0.0000 -1.0000 -0.0000
v 0.0000 -1.0000 -0.0000
f 25 26 2
f 26 27 3
f 27 28 4
f 28 29 5
f 29 30 6
f 30 31 7
f 31 32 8
f 32 33 9
f 33 34 10
f 34 35 11
f 35 36 12
f 36 37 13
f 37 38 14
f 38 39 15
f 39 40 16
f 40 41 17
f 41 42 18
f 42 43 19
f 43 44 20
f 44 45 21
f 45 46 22
f 46 47 23
f 47 48 24
f 48 25 1
f 25 49 26
f 49 50 26
f 26 50 27
f 50 51 27
f 27 51 28
f 51 52 28
f 28 52 29
f 52 53 29
f 29 53 30
f 53 54 30
f 30 54 31
f 54 55 31
f 31 55 32
f 55 56 32
f 32 56 33
f 56 57 33
f 33 57 34
f 57 58 34
f 34 58 35
f 58 59 35
f 35 59 36
f 59 60 36
f 36 60 37
f 60 61 37
f 37 61 38
f 61 62 38
f 38 62 39
f 62 63 39
f 39 63 40
f 63 64 40
f 40 64 41
f 64 65 41
f 41 65 42
f 65 66 42
f 42 66 43
f 66 67 43
f 43 67 44
f 67 68 44
f 44 68 45
f 68 69 45
f 45 69 46
f 69 70 46
f 46 70 47
f 70 71 47
f 47 71 48
f 71 72 48
f 48 72 25
f 72 49 25
f 49 73 50
f 73 74 50
f 50 74 51
f 74 75 51
f 51 75 52
f 75 76 52
f 52 76 53
f 76 77 53
f 53 77 54
f 77 78 54
f 54 78 55
f 78 79 55
f 55 79 56
f 79 80 56
f 56 80 57
f 80 81 57
f 57 81 58
f 81 82 58
f 58 82 59
f 82 83 59
f 59 83 60
f 83 84 60
f 60 84 61
f 84 85 61
f 61 85 62
f 85 86 62
f 62 86 63
f 86 87 63
f 63 87 64
f 87 88 64
f 64 88 65
f 88 89 65
f 65 89 66
f 89 90 66
f 66 90 67
f 90 91 67
f 67 91 68
f 91 92 68
f 68 92 69
f 92 93 69
f 69 93 70
f 93 94 70
f 70 94 71
f 94 95 71
f 71 95 72
f 95 96 72
f 72 96 49
f 96 73 49
f 73 97 74
f 97 98 74
f 74 98 75
f 98 99 75
f 75 99 76
f 99 100 76
f 76 100 77
f 100 101 77
f 77 101 78
f 101 102 78
f 78 102 79
f 102 103 79
f 79 103 80
f 103 104 80
f 80 104 81
f 104 105 81
f 81 105 82
f 105 106 82
f 82 106 83
f 106 107 83
f 83 107 84
f 107 108 84
f 84 108 85
f 108 109 85
f 85 109 86
f 109 110 86
f 86 110 87
f 110 111 87
f 87 111 88
f 111 112 88
f 88 112 89
f 112 113 89
f 89 113 90
f 113 114 90
f 90 114 91
f 114 115 91
f 91 115 92
f 115 116 92
f 92 116 93
f 116 117 93
f 93 117 94
f 117 118 94
f 94 118 95
f 118 119 95
f 95 119 96
f 119 120 96
f 96 120 73
f 120 97 73
f 97 121 98
f 121 122 98
f 98 122 99
f 122 123 99
f 99 123 100
f 123 124 100
f 100 124 101
f 124 125 101
f 101 125 102
f 125 126 102
f 102 126 103
f 126 127 103
f 103 127 104
f 127 128 104
f 104 128 105
f 128 129 105
f 105 129 106
f 129 130 106
f 106 130 107
f 130 131 107
f 107 131 108
f 131 132 108
f 108 132 109
f 132 133 109
f 109 133 110
f 133 134 110
f 110 134 111
f 134 135 111
f 111 135 112
f 135 136 112
f 112 136 113
f 136 137 113
f 113 137 114
f 137 138 114
f 114 138 115
f 138 139 115
f 115 139 116
f 139 140 116
f 116 140 117
f 140 141 117
f 117 141 118
f 141 142 118
f 118 142 119
f 142 143 119
f 119 143 120
f 143 144 120
f 120 144 97
f 144 121 97
f 121 145 122
f 145 146 122
f 122 146 123
f 146 147 123
f 123 147 124
f 147 148 124
f 124 148 125
f 148 149 125
f 125 149 126
f 149 150 126
f 126 150 127
f 150 151 127
f 127 151 128
f 151 152 128
f 128 152 129
f 152 153 129
f 129 153 130
f 153 154 130
f 130 154 131
f 154 155 131
f 131 155 132
f 155 156 132
f 132 156 133
f 156 157 133
f 133 157 134
f 157 158 134
f 134 158 135
f 158 159 135
f 135 159 136
f 159 160 136
f 136 160 137
f 160 161 137
f 137 161 138
f 161 162 138
f 138 162 139
f 162 163 139
f 139 163 140
f 163 164 140
f 140 164 141
f 164 165 141
f 141 165 142
f 165 166 142
f 142 166 143
f 166 167 143
f 143 167 144
f 167 168 144
f 144 168 121
f 168 145 121
f 145 169 146
f 169 170 146
f 146 170 147
f 170 171 147
f 147 171 148
f 171 172 148
f 148 172 149
f 172 173 149
f 149 173 150
f 173 174 150
f 150 174 151
f 174 175 151
f 151 175 152
f 175 176 152
f 152 176 153
f 176 177 153
f 153 177 154
f 177 178 154
f 154 178 155
f 178 179 155
f 155 179 156
f 179 180 156
f 156 180 157
f 180 181 157
f 157 181 158
f 181 182 158
f 158 182 159
f 182 183 159
f 159 183 160
f 183 184 160
f 160 184 161
f 184 185 161
f 161 185 162
f 185 186 162
f 162 186 163
f 186 187 163
f 163 187 164
f 187 188 164
f 164 188 165
f 188 189 165
f 165 189 166
f 189 190 166
f 166 190 167
f 190 191 167
f 167 191 168
f 191 192 168
f 168 192 145
f 192 169 145
f 169 193 170
f 193 194 170
f 170 194 171
f 194 195 171
f 171 195 172
f 195 196 172
f 172 196 173
f 196 197 173
f 173 197 174
f 197 198 174
f 174 198 175
f 198 199 175
f 175 199 176
f 199 200 176
f 176 200 177
f 200 201 177
f 177 201 178
f 201 202 178
f 178 202 179
f 202 203 179
f 179 203 180
f 203 204 180
f 180 204 181
f 204 205 181
f 181 205 182
f 205 206 182
f 182 206 183
f 206 207 183
f 183 207 184
f 207 208 184
f 184 208 185
f 208 209 185
f 185 209 186
f 209 210 186
f 186 210 187
f 210 211 187
f 187 211 188
f 211 212 188
f 188 212 189
f 212 213 189
f 189 213 190
f 213 214 190
f 190 214 191
f 214 215 191
f 191 215 192
f 215 216 192
f 192 216 169
f 216 193 169
f 193 217 194
f 217 218 194
f 194 218 195
f 218 219 195
f 195 219 196
f 219 220 196
f 196 220 197
f 220 221 197
f 197 221 198
f 221 222 198
f 198 222 199
f 222 223 199
f 199 223 200
f 223 224 200
f 200 224 201
f 224 225 201
f 201 225 202
f 225 226 202
f 202 226 203
f 226 227 203
f 203 227 204
f 227 228 204
f 204 228 205
f 228 229 205
f 205 229 206
f 229 230 206
f 206 230 207
f 230 231 207
f 207 231 208
f 231 232 208
f 208 232 209
f 232 233 209
f 209 233 210
f 233 234 210
f 210 234 211
f 234 235 211
f 211 235 212
f 235 236 212
f 212 236 213
f 236 237 213
f 213 237 214
f 237 238 214
f 214 238 215
f 238 239 215
f 215 239 216
f 239 240 216
f 216 240 193
f 240 217 193
f 217 241 218
f 241 242 218
f 218 242 219
f 242 243 219
f 219 243 220
f 243 244 220
f 220 244 221
f 244 245 221
f 221 245 222
f 245 246 222
f 222 246 223
f 246 247 223
f 223 247 224
f 247 248 224
f 224 248 225
f 248 249 225
f 225 249 226
f 249 250 226
f 226 250 227
f 250 251 227
f 227 251 228
f 251 252 228
f 228 252 229
f 252 253 229
f 229 253 230
f 253 254 230
f 230 254 231
f 254 255 231
f 231 255 232
f 255 256 232
f 232 256 233
f 256 257 233
f 233 257 234
f 257 258 234
f 234 258 235
f 258 259 235
f 235 259 236
f 259 260 236
f 236 260 237
f 260 261 237
f 237 261 238
f 261 262 238
f 238 262 239
f 262 263 239
f 239 263 240
f 263 264 240
f 240 264 217
f 264 241 217
f 241 265 242
f 265 266 242
f 242 266 243
f 266 267 243
f 243 267 244
f 267 268 244
f 244 268 245
f 268 269 245
f 245 269 246
f 269 270 246
f 246 270 247
f 270 271 247
f 247 271 248
f 271 272 248
f 248 272 249
f 272 273 249
f 249 273 250
f 273 274 250
f 250 274 251
f 274 275 251
f 251 275 252
f 275 276 252
f 252 276 253
f 276 277 253
f 253 277 254
f 277 278 254
f 254 278 255
f 278 279 255
f 255 279 256
f 279 280 256
f 256 280 257
f 280 281 257
f 257 281 258
f 281 282 258
f 258 282 259
f 282 283 259
f 259 283 260
f 283 284 260
f 260 284 261
f 284 285 261
f 261 285 262
f 285 286 262
f 262 286 263
f 286 287 263
f 263 287 264
f 287 288 264
f 264 288 241
f 288 265 241
f 265 289 266
f 289 290 266
f 266 290 267
f 290 291 267
f 267 291 268
f 291 292 268
f 268 292 269
f 292 293 269
f 269 293 270
f 293 294 270
f 270 294 271
f 294 295 271
f 271 295 272
f 295 296 272
f 272 296 273
f 296 297 273
f 273 297 274
f 297 298 274
f 274 298 275
f 298 299 275
f 275 299 276
f 299 300 276
f 276 300 277
f 300 301 277
f 277 301 278
f 301 302 278
f 278 302 279
f 302 303 279
f 279 303 280
f 303 304 280
f 280 304 281
f 304 305 281
f 281 305 282
f 305 306 282
f 282 306 283
f 306 307 283
f 283 307 284
f 307 308 284
f 284 308 285
f 308 309 285
f 285 309 286
f 309 310 286
f 286 310 287
f 310 311 287
f 287 311 288
f 311 312 288
f 288 312 265
f 312 289 265
f 289 313 290
f 313 314 290
f 290 314 291
f 314 315 291
f 291 315 292
f 315 316 292
f 292 316 293
f 316 317 293
f 293 317 294
f 317 318 294
f 294 318 295
f 318 319 295
f 295 319 296
f 319 320 296
f 296 320 297
f 320 321 297
f 297 321 298
f 321 322 298
f 298 322 299
f 322 323 299
f 299 323 300
f 323 324 300
f 300 324 301
f 324 325 301
f 301 325 302
f 325 326 302
f 302 326 303
f 326 327 303
f 303 327 304
f 327 328 304
f 304 328 305
f 328 329 305
f 305 329 306
f 329 330 306
f 306 330 307
f 330 331 307
f 307 331 308
f 331 332 308
f 308 332 309
f 332 333 309
f 309 333 310
f 333 334 310
f 310 334 311
f 334 335 311
f 311 335 312
f 335 336 312
f 312 336 289
f 336 313 289
f 313 337 314
f 337 338 314
f 314 338 315
f 338 339 315
f 315 339 316
f 339 340 316
f 316 340 317
f 340 341 317
f 317 341 318
f 341 342 318
f 318 342 319
f 342 343 319
f 319 343 320
f 343 344 320
f 320 344 321
f 344 345 321
f 321 345 322
f 345 346 322
f 322 346 323
f 346 347 323
f 323 347 324
f 347 348 324
f 324 348 325
f 348 349 325
f 325 349 326
f 349 350 326
f 326 350 327
f 350 351 327
f 327 351 328
f 351 352 328
f 328 352 329
f 352 353 329
f 329 353 330
f 353 354 330
f 330 354 331
f 354 355 331
f 331 355 332
f 355 356 332
f 332 356 333
f 356 357 333
f 333 357 334
f 357 358 334
f 334 358 335
f 358 359 335
f 335 359 336
f 359 360 336
f 336 360 313
f 360 337 313
f 337 361 338
f 361 362 338
f 338 362 339
f 362 363 339
f 339 363 340
f 363 364 340
f 340 364 341
f 364 365 341
f 341 365 342
f 365 366 342
f 342 366 343
f 366 367 343
f 343 367 344
f 367 368 344
f 344 368 345
f 368 369 345
f 345 369 346
f 369 370 346
f 346 370 347
f 370 371 347
f 347 371 348
f 371 372 348
f 348 372 349
f 372 373 349
f 349 373 350
f 373 374 350
f 350 374 351
f 374 375 351
f 351 375 352
f 375 376 352
f 352 376 353
f 376 377 353
f 353 377 354
f 377 378 354
f 354 378 355
f 378 379 355
f 355 379 356
f 379 380 356
f 356 380 357
f 380 381 357
f 357 381 358
f 381 382 358
f 358 382 359
f 382 383 359
f 359 383 360
f 383 384 360
f 360 384 337
f 384 361 337
f 361 385 362
f 362 386 363
f 363 387 364
f 364 388 365
f 365 389 366
f 366 390 367
f 367 391 368
f 368 392 369
f 369 393 370
f 370 394 371
f 371 395 372
f 372 396 373
f 373 397 374
f 374 398 375
f 375 399 376
f 376 400 377
f 377 401 378
f 378 402 379
f 379 403 380
f 380 404 381
f 381 405 382
f 382 406 383
f 383 407 384
f 384 408 361
